<svg 
 xmlns="http://www.w3.org/2000/svg"
 xmlns:xlink="http://www.w3.org/1999/xlink"
 width="38px" height="41px">
<path fill-rule="evenodd"  fill="rgb(255, 199, 44)"
 d="M34.174,20.499 C33.537,20.969 32.838,21.310 32.107,21.548 C31.511,24.508 30.567,28.007 30.420,28.558 C30.420,28.558 30.352,28.829 30.276,29.208 C30.202,29.588 30.121,30.079 30.097,30.519 C30.099,30.798 30.102,31.095 30.107,31.401 C30.143,33.398 30.186,35.886 29.050,37.598 C27.578,39.813 24.494,40.801 19.048,40.801 C13.600,40.801 10.515,39.813 9.044,37.598 C7.910,35.886 7.950,33.397 7.986,31.401 C7.991,31.095 7.997,30.798 7.997,30.519 C7.948,29.634 7.673,28.547 7.667,28.536 C7.523,28.001 6.585,24.505 5.989,21.548 C5.258,21.310 4.559,20.969 3.922,20.499 C1.042,18.368 0.283,14.157 0.087,11.861 C0.008,10.924 0.628,10.074 1.545,9.875 C3.088,9.534 5.576,9.180 7.913,9.685 L7.251,7.890 L6.025,4.598 C5.462,3.091 6.008,1.428 7.352,0.551 C8.696,-0.326 10.434,-0.151 11.577,0.974 L14.500,3.859 C14.846,3.782 15.229,3.738 15.654,3.738 L22.440,3.738 C22.864,3.738 23.248,3.782 23.593,3.859 L26.517,0.974 C27.659,-0.154 29.398,-0.326 30.741,0.551 C32.085,1.428 32.632,3.094 32.069,4.598 L30.175,9.680 C30.241,9.667 30.313,9.662 30.380,9.651 C32.661,9.206 35.052,9.543 36.551,9.875 C37.465,10.074 38.088,10.924 38.007,11.861 C37.811,14.157 37.052,18.368 34.174,20.499 ZM11.580,5.188 L9.482,3.118 C9.403,3.042 9.302,3.004 9.202,3.004 C9.126,3.004 9.049,3.025 8.981,3.069 C8.824,3.173 8.761,3.370 8.826,3.547 L10.100,6.966 C10.187,6.870 10.273,6.780 10.359,6.689 C10.872,6.130 11.320,5.727 11.647,5.467 C11.687,5.435 11.728,5.404 11.766,5.372 L11.580,5.188 ZM29.112,3.069 C29.082,3.050 29.049,3.038 29.015,3.028 C29.000,3.023 28.985,3.017 28.969,3.014 C28.842,2.990 28.708,3.024 28.614,3.118 L26.330,5.371 C26.368,5.404 26.408,5.434 26.446,5.467 C26.823,5.769 27.366,6.249 27.987,6.964 L28.404,5.861 L29.267,3.547 C29.335,3.370 29.270,3.173 29.112,3.069 ZM27.863,12.180 C27.863,12.180 27.863,12.175 27.861,12.172 C27.753,11.959 27.644,11.756 27.536,11.562 C27.532,11.554 27.527,11.546 27.523,11.538 C27.414,11.343 27.306,11.158 27.200,10.982 C27.164,10.924 27.132,10.866 27.097,10.812 C26.326,9.572 25.606,8.758 25.097,8.269 C24.890,8.070 24.716,7.922 24.591,7.824 C24.496,7.748 24.403,7.671 24.308,7.595 C24.295,7.584 24.281,7.573 24.267,7.562 C23.778,7.158 23.454,6.893 22.959,6.792 C22.807,6.759 22.635,6.742 22.440,6.742 L21.406,6.742 L16.687,6.742 L15.653,6.742 C15.563,6.742 15.478,6.747 15.398,6.754 C15.385,6.755 15.373,6.756 15.361,6.758 C15.282,6.765 15.206,6.776 15.134,6.792 C14.639,6.893 14.315,7.158 13.825,7.562 C13.812,7.573 13.798,7.584 13.785,7.595 C13.692,7.671 13.597,7.748 13.502,7.824 C13.380,7.922 13.208,8.067 13.001,8.266 C12.493,8.755 11.769,9.569 10.997,10.812 C10.961,10.866 10.929,10.924 10.893,10.981 C10.676,11.342 10.453,11.737 10.232,12.172 C10.230,12.175 10.230,12.180 10.227,12.183 C9.052,14.490 8.467,16.468 8.489,18.065 C8.497,18.839 8.783,20.376 9.150,22.042 C9.626,24.205 10.241,26.584 10.562,27.769 C10.580,27.846 10.926,29.206 10.986,30.404 L10.989,30.478 C10.989,30.787 10.983,31.115 10.978,31.450 C10.951,33.032 10.915,35.001 11.533,35.932 C12.357,37.169 14.884,37.797 19.048,37.797 C23.210,37.797 25.739,37.169 26.561,35.932 C27.178,35.001 27.143,33.032 27.115,31.450 C27.110,31.115 27.105,30.787 27.105,30.478 L27.107,30.404 C27.167,29.206 27.513,27.846 27.526,27.788 C27.850,26.592 28.465,24.208 28.943,22.042 C29.310,20.376 29.599,18.838 29.607,18.066 C29.626,16.468 29.041,14.491 27.863,12.180 ZM25.253,29.730 C25.182,29.730 25.108,29.716 25.040,29.686 C23.142,28.881 21.126,28.474 19.048,28.474 C16.967,28.474 14.952,28.881 13.053,29.686 C12.778,29.804 12.458,29.675 12.341,29.397 C12.224,29.118 12.354,28.799 12.632,28.681 C14.664,27.818 16.823,27.381 19.048,27.381 C21.273,27.381 23.430,27.818 25.465,28.681 C25.739,28.799 25.870,29.118 25.753,29.397 C25.666,29.604 25.465,29.730 25.253,29.730 ZM23.936,20.990 C23.583,20.990 23.263,20.825 23.018,20.543 C22.679,20.170 22.470,19.590 22.470,18.932 C22.470,18.097 22.808,17.394 23.308,17.070 C23.496,16.946 23.709,16.877 23.936,16.877 C24.759,16.877 25.405,17.782 25.405,18.932 C25.405,20.086 24.759,20.990 23.936,20.990 ZM23.613,17.929 C23.436,17.929 23.296,18.100 23.296,18.319 C23.296,18.542 23.436,18.713 23.613,18.713 C23.792,18.713 23.933,18.542 23.933,18.319 C23.933,18.100 23.792,17.929 23.613,17.929 ZM14.158,20.972 C13.331,20.972 12.689,20.068 12.689,18.915 C12.689,17.764 13.331,16.860 14.158,16.860 C14.385,16.860 14.600,16.929 14.792,17.058 C15.289,17.383 15.623,18.085 15.623,18.915 C15.623,19.572 15.414,20.149 15.079,20.522 C14.831,20.807 14.510,20.972 14.158,20.972 ZM13.840,17.911 C13.661,17.911 13.517,18.082 13.517,18.302 C13.517,18.524 13.661,18.695 13.840,18.695 C14.017,18.695 14.158,18.524 14.158,18.302 C14.158,18.082 14.017,17.911 13.840,17.911 ZM16.720,32.493 C17.457,33.198 17.487,34.378 16.781,35.119 C16.644,35.263 16.458,35.335 16.275,35.335 C16.102,35.335 15.929,35.269 15.792,35.142 C15.512,34.873 14.408,33.815 14.128,33.546 C13.850,33.277 13.840,32.834 14.105,32.553 C14.810,31.812 15.982,31.786 16.720,32.493 ZM23.986,32.553 C24.254,32.834 24.244,33.277 23.963,33.546 C23.683,33.815 22.580,34.873 22.299,35.142 C22.165,35.269 21.989,35.335 21.816,35.335 C21.633,35.335 21.447,35.263 21.310,35.119 C20.608,34.378 20.634,33.198 21.372,32.493 C22.110,31.786 23.282,31.812 23.986,32.553 Z"/>
</svg>