<svg 
 xmlns="http://www.w3.org/2000/svg"
 xmlns:xlink="http://www.w3.org/1999/xlink"
 width="39px" height="36px">
<path fill-rule="evenodd"  fill="rgb(125, 91, 238)"
 d="M34.381,2.948 C33.938,1.669 32.729,0.758 31.315,0.758 L7.568,0.758 C6.154,0.758 4.945,1.669 4.503,2.948 L0.012,15.932 L0.012,33.273 C0.012,34.465 0.983,35.440 2.171,35.440 L4.330,35.440 C5.528,35.440 6.489,34.465 6.489,33.273 L6.489,31.105 L32.394,31.105 L32.394,33.273 C32.394,34.465 33.366,35.440 34.553,35.440 L36.712,35.440 C37.910,35.440 38.871,34.465 38.871,33.273 L38.871,15.932 L34.381,2.948 ZM7.568,24.602 C5.776,24.602 4.330,23.150 4.330,21.351 C4.330,19.551 5.776,18.099 7.568,18.099 C9.360,18.099 10.806,19.551 10.806,21.351 C10.806,23.150 9.360,24.602 7.568,24.602 ZM31.315,24.602 C29.523,24.602 28.077,23.150 28.077,21.351 C28.077,19.551 29.523,18.099 31.315,18.099 C33.107,18.099 34.553,19.551 34.553,21.351 C34.553,23.150 33.107,24.602 31.315,24.602 ZM4.330,13.764 L7.568,4.010 L31.315,4.010 L34.553,13.764 L4.330,13.764 Z"/>
</svg>