<svg 
 xmlns="http://www.w3.org/2000/svg"
 xmlns:xlink="http://www.w3.org/1999/xlink"
 width="15px" height="15px">
<path fill-rule="evenodd"  fill="rgb(93, 107, 127)"
 d="M14.616,11.002 C14.497,11.305 14.179,11.447 13.902,11.326 C12.711,10.860 12.513,10.941 11.977,11.143 C11.838,11.204 11.699,11.265 11.521,11.326 C11.144,11.488 10.826,11.508 10.549,11.508 C10.033,11.508 9.676,11.366 9.596,11.305 C9.676,11.062 9.735,10.799 9.735,10.516 C9.735,10.455 9.735,10.354 9.735,10.273 C9.854,10.253 9.993,10.273 10.112,10.334 C10.152,10.374 10.549,10.556 11.203,10.313 C11.342,10.253 11.481,10.232 11.600,10.172 C12.354,9.868 12.810,9.726 14.318,10.313 C14.616,10.435 14.755,10.759 14.616,11.002 ZM10.687,8.005 C10.965,8.005 11.203,8.147 11.203,8.451 C11.203,8.754 10.965,8.896 10.687,8.896 L8.108,8.896 L8.108,9.301 C8.664,9.564 8.842,10.030 8.842,10.556 C8.842,11.366 8.227,12.034 7.434,12.034 C6.640,12.034 5.985,11.366 5.946,10.516 C5.946,9.989 6.084,9.524 6.660,9.261 L6.660,1.101 C6.660,0.656 6.957,0.271 7.394,0.271 C7.830,0.271 8.108,0.615 8.108,1.061 L8.108,3.025 L10.687,3.025 C10.965,3.025 11.203,3.328 11.203,3.612 C11.203,3.915 10.965,4.199 10.687,4.199 L8.108,4.199 L8.108,5.657 L10.687,5.657 C10.965,5.657 11.203,5.819 11.203,6.102 C11.203,6.406 10.965,6.547 10.687,6.547 L8.108,6.547 L8.108,8.005 L10.687,8.005 ZM4.616,11.427 C4.160,11.427 3.545,11.305 2.851,10.900 C2.335,10.597 1.541,10.900 1.283,11.042 C1.025,11.204 0.688,11.083 0.549,10.819 C0.410,10.556 0.529,10.212 0.787,10.070 C0.946,9.969 2.335,9.281 3.426,9.949 C4.339,10.475 5.033,10.232 5.053,10.232 C5.112,10.212 5.132,10.212 5.192,10.212 C5.172,10.313 5.172,10.435 5.172,10.556 C5.172,10.860 5.231,11.103 5.311,11.346 C5.152,11.366 4.934,11.427 4.616,11.427 ZM2.335,13.229 C2.593,13.492 2.751,13.613 3.029,13.613 C3.327,13.613 3.466,13.492 3.724,13.229 C4.041,12.905 4.438,12.500 5.212,12.500 C5.985,12.500 6.422,12.905 6.700,13.229 C6.957,13.492 7.096,13.613 7.394,13.613 C7.692,13.613 7.830,13.492 8.088,13.229 C8.406,12.905 8.803,12.500 9.576,12.500 C10.350,12.500 10.787,12.905 11.064,13.229 C11.322,13.492 11.481,13.613 11.759,13.613 C12.056,13.613 12.195,13.492 12.453,13.229 C12.771,12.905 13.167,12.500 13.941,12.500 C14.259,12.500 14.517,12.763 14.477,13.047 C14.477,13.330 14.259,13.593 13.941,13.593 C13.644,13.593 13.505,13.715 13.247,13.978 C12.929,14.302 12.533,14.707 11.759,14.707 C10.985,14.707 10.549,14.302 10.271,13.978 C10.013,13.715 9.854,13.593 9.576,13.593 C9.279,13.593 9.140,13.715 8.882,13.978 C8.565,14.302 8.168,14.707 7.394,14.707 C6.620,14.707 6.184,14.302 5.906,13.978 C5.648,13.715 5.489,13.593 5.212,13.593 C4.914,13.593 4.775,13.715 4.517,13.978 C4.200,14.302 3.803,14.707 3.029,14.707 C2.255,14.707 1.819,14.302 1.541,13.978 C1.283,13.715 1.124,13.593 0.847,13.593 C0.569,13.593 0.311,13.371 0.311,13.047 C0.311,12.763 0.529,12.500 0.847,12.500 C1.620,12.500 2.057,12.905 2.335,13.229 Z"/>
</svg>