<svg 
 xmlns="http://www.w3.org/2000/svg"
 xmlns:xlink="http://www.w3.org/1999/xlink"
 width="17px" height="17px">
<path fill-rule="evenodd"  fill="rgb(93, 107, 127)"
 d="M8.632,16.948 C4.066,16.948 0.365,13.171 0.365,8.511 C0.365,3.852 4.066,0.074 8.632,0.074 C13.196,0.079 16.895,3.854 16.900,8.511 C16.900,13.171 13.199,16.948 8.632,16.948 ZM13.763,3.586 C11.094,0.697 6.636,0.563 3.805,3.286 C0.975,6.010 0.843,10.559 3.512,13.448 L8.392,13.448 L8.392,12.527 C5.813,12.287 3.770,10.202 3.535,7.571 C3.266,4.559 5.440,1.894 8.392,1.619 C11.343,1.345 13.955,3.563 14.224,6.576 C14.493,9.588 12.319,12.252 9.367,12.527 L9.367,14.443 L4.649,14.443 C5.821,15.267 7.210,15.707 8.632,15.705 C10.431,15.707 12.161,15.006 13.470,13.747 C16.300,11.024 16.432,6.475 13.763,3.586 ZM11.478,9.913 C11.599,9.691 11.873,9.611 12.090,9.734 L12.476,9.951 C12.990,9.284 13.314,8.487 13.415,7.645 L12.989,7.519 C12.839,7.476 12.723,7.357 12.680,7.205 C12.612,6.961 12.750,6.706 12.989,6.636 L13.409,6.509 C13.311,5.666 12.988,4.867 12.476,4.199 L12.090,4.428 C11.955,4.504 11.790,4.504 11.654,4.428 C11.437,4.305 11.358,4.025 11.478,3.803 L11.691,3.410 C11.038,2.886 10.257,2.554 9.432,2.452 L9.309,2.887 C9.254,3.082 9.080,3.218 8.880,3.218 C8.680,3.219 8.503,3.084 8.449,2.887 L8.320,2.444 C7.495,2.547 6.714,2.878 6.060,3.402 L6.275,3.792 C6.374,3.971 6.343,4.195 6.200,4.340 C6.058,4.486 5.839,4.517 5.663,4.416 L5.277,4.199 C4.763,4.867 4.437,5.666 4.337,6.509 L4.763,6.634 C4.912,6.678 5.029,6.797 5.072,6.949 C5.140,7.193 5.002,7.448 4.763,7.518 L4.337,7.643 C4.437,8.485 4.762,9.283 5.276,9.949 L5.661,9.732 C5.837,9.631 6.057,9.663 6.198,9.809 C6.340,9.953 6.371,10.176 6.273,10.354 L6.060,10.748 C6.714,11.269 7.496,11.598 8.320,11.699 L8.449,11.271 C8.506,11.079 8.680,10.948 8.877,10.949 C9.073,10.945 9.248,11.073 9.309,11.264 L9.432,11.699 C10.255,11.599 11.037,11.272 11.691,10.752 L11.478,10.358 C11.403,10.220 11.403,10.052 11.478,9.913 ZM9.039,8.814 C8.430,8.868 7.894,8.409 7.840,7.787 C7.787,7.166 8.238,6.618 8.846,6.564 L8.968,4.689 C8.968,4.649 9.000,4.616 9.039,4.616 C9.079,4.616 9.111,4.649 9.111,4.689 L9.232,6.564 C9.841,6.618 10.291,7.166 10.238,7.787 C10.185,8.409 9.648,8.868 9.039,8.814 ZM9.039,7.126 L9.039,7.119 C9.037,7.119 9.034,7.119 9.032,7.119 C8.728,7.123 8.484,7.378 8.488,7.689 C8.488,7.999 8.735,8.251 9.039,8.251 C9.344,8.251 9.591,7.999 9.591,7.689 C9.591,7.378 9.344,7.126 9.039,7.126 Z"/>
</svg>