<svg 
 xmlns="http://www.w3.org/2000/svg"
 xmlns:xlink="http://www.w3.org/1999/xlink"
 width="44px" height="41px">
<path fill-rule="evenodd"  fill="rgb(255, 81, 99)"
 d="M27.398,40.605 C26.062,40.879 24.728,41.010 23.414,41.010 C14.166,41.011 5.859,34.481 3.937,25.036 C3.921,24.952 3.905,24.873 3.892,24.792 C2.857,19.373 4.146,14.019 7.047,9.768 C7.074,8.863 6.828,7.005 4.495,6.277 C2.607,5.688 1.708,5.398 1.370,5.150 C0.422,4.454 0.895,3.646 2.224,3.402 C4.437,2.995 5.590,3.135 7.475,3.878 C9.360,4.620 9.307,4.946 9.550,4.864 C9.843,4.766 8.914,3.348 8.489,2.870 C8.063,2.393 7.450,0.990 8.852,0.537 C10.119,0.128 11.348,1.719 12.206,2.484 C12.557,2.797 12.973,3.324 13.348,3.853 C15.192,2.757 17.230,1.930 19.439,1.477 C25.495,0.234 31.661,1.840 36.359,5.880 C39.746,8.788 42.009,12.649 42.903,17.045 C45.098,27.833 38.142,38.401 27.398,40.605 ZM38.944,17.857 C38.231,14.354 36.429,11.279 33.731,8.962 C33.710,8.944 33.687,8.929 33.665,8.910 C33.147,9.409 32.707,9.780 32.500,9.952 C26.980,14.525 17.534,14.704 13.738,10.947 C13.724,10.933 12.880,10.060 13.568,10.793 C13.620,10.848 13.684,10.894 13.738,10.947 C13.738,10.948 13.740,10.950 13.740,10.950 C13.740,10.950 13.200,15.924 10.190,20.678 C9.572,21.651 8.714,22.506 7.752,23.241 C7.790,23.514 7.815,23.787 7.868,24.062 L7.896,24.221 C9.645,32.820 18.030,38.384 26.590,36.629 C35.150,34.873 40.692,26.452 38.944,17.857 ZM30.028,25.836 C28.275,26.195 26.563,25.059 26.205,23.299 C25.847,21.538 26.978,19.819 28.732,19.459 C30.485,19.100 32.197,20.236 32.555,21.996 C32.913,23.757 31.782,25.476 30.028,25.836 ZM29.491,28.335 C30.123,30.511 28.878,32.789 26.711,33.424 C24.543,34.058 22.274,32.808 21.642,30.632 C24.921,31.757 27.530,30.938 29.491,28.335 ZM20.125,28.358 C18.372,28.718 16.660,27.582 16.302,25.821 C15.943,24.060 17.075,22.342 18.828,21.982 C20.582,21.622 22.294,22.758 22.652,24.519 C23.010,26.280 21.879,27.999 20.125,28.358 Z"/>
</svg>