<svg 
 xmlns="http://www.w3.org/2000/svg"
 xmlns:xlink="http://www.w3.org/1999/xlink"
 width="18px" height="18px">
<path fill-rule="evenodd"  fill="rgb(93, 107, 127)"
 d="M15.238,14.225 C15.097,13.975 14.916,13.756 14.701,13.569 C15.768,12.255 16.409,10.568 16.409,8.732 C16.409,4.541 13.069,1.133 8.962,1.133 C7.715,1.133 6.542,1.451 5.509,2.005 C5.418,1.733 5.284,1.484 5.111,1.263 C6.262,0.643 7.571,0.288 8.962,0.288 C13.531,0.288 17.236,4.070 17.236,8.732 C17.236,10.831 16.481,12.748 15.238,14.225 ZM3.170,4.510 C2.256,4.510 1.516,3.754 1.516,2.821 C1.516,1.889 2.256,1.133 3.170,1.133 C4.084,1.133 4.825,1.889 4.825,2.821 C4.825,3.754 4.084,4.510 3.170,4.510 ZM2.370,5.208 C1.827,6.263 1.516,7.460 1.516,8.732 C1.516,12.922 4.856,16.331 8.962,16.331 C9.563,16.331 10.144,16.250 10.703,16.114 C10.774,16.396 10.884,16.661 11.039,16.897 C10.374,17.073 9.681,17.176 8.962,17.176 C4.392,17.176 0.688,13.395 0.688,8.732 C0.688,7.313 1.036,5.977 1.642,4.802 C1.860,4.979 2.104,5.114 2.370,5.208 ZM8.962,13.798 C6.224,13.798 3.998,11.526 3.998,8.732 C3.998,5.938 6.224,3.666 8.962,3.666 C9.421,3.666 9.862,3.735 10.284,3.854 C10.115,4.087 9.989,4.349 9.905,4.633 C9.601,4.558 9.288,4.510 8.962,4.510 C6.681,4.510 4.825,6.405 4.825,8.732 C4.825,11.061 6.681,12.954 8.962,12.954 C11.243,12.954 13.099,11.061 13.099,8.732 C13.099,8.400 13.052,8.080 12.980,7.770 C13.258,7.684 13.516,7.556 13.742,7.384 C13.860,7.813 13.927,8.265 13.927,8.732 C13.927,11.526 11.700,13.798 8.962,13.798 ZM8.962,10.843 C7.820,10.843 6.894,9.898 6.894,8.732 C6.894,7.566 7.820,6.621 8.962,6.621 C10.105,6.621 11.031,7.566 11.031,8.732 C11.031,9.898 10.105,10.843 8.962,10.843 ZM8.962,7.465 C8.278,7.465 7.721,8.035 7.721,8.732 C7.721,9.431 8.278,9.999 8.962,9.999 C9.647,9.999 10.203,9.431 10.203,8.732 C10.203,8.035 9.647,7.465 8.962,7.465 ZM12.272,3.666 C13.186,3.666 13.927,4.422 13.927,5.355 C13.927,6.287 13.186,7.043 12.272,7.043 C11.358,7.043 10.617,6.287 10.617,5.355 C10.617,4.422 11.358,3.666 12.272,3.666 ZM13.099,13.798 C14.013,13.798 14.754,14.554 14.754,15.487 C14.754,16.420 14.013,17.176 13.099,17.176 C12.185,17.176 11.445,16.420 11.445,15.487 C11.445,14.554 12.185,13.798 13.099,13.798 Z"/>
</svg>