<svg 
 xmlns="http://www.w3.org/2000/svg"
 xmlns:xlink="http://www.w3.org/1999/xlink"
 width="39px" height="38px">
<path fill-rule="evenodd"  fill="rgb(43, 182, 253)"
 d="M34.851,8.188 L27.140,8.188 L27.140,4.317 C27.140,2.178 25.415,0.445 23.284,0.445 L15.573,0.445 C13.443,0.445 11.717,2.178 11.717,4.317 L11.717,8.188 L4.006,8.188 C1.876,8.188 0.170,9.920 0.170,12.059 L0.151,33.351 C0.151,35.491 1.876,37.223 4.006,37.223 L34.851,37.223 C36.981,37.223 38.707,35.491 38.707,33.351 L38.707,12.059 C38.707,9.920 36.981,8.188 34.851,8.188 ZM23.284,8.188 L15.573,8.188 L15.573,4.317 L23.284,4.317 L23.284,8.188 Z"/>
</svg>